<!DOCTYPE svg PUBLIC "-//W3C//DTD SVG 20010904//EN" "http://www.w3.org/TR/2001/REC-SVG-20010904/DTD/svg10.dtd">
<svg version="1.0" xmlns="http://www.w3.org/2000/svg" width="88px" height="88px" viewBox="0 0 880 880" preserveAspectRatio="xMidYMid meet">
<g id="layer101" fill="#0554a3" stroke="none">
 <path d="M127 714 c-71 -88 -117 -154 -117 -167 1 -25 76 -366 82 -373 10 -10 339 -164 350 -164 7 0 90 36 184 81 l171 81 42 183 c24 100 41 190 39 199 -1 9 -54 81 -117 161 l-114 145 -201 0 -202 0 -117 -146z m367 126 l141 0 114 -146 113 -146 -37 -161 c-21 -89 -41 -171 -45 -182 -5 -14 -61 -46 -172 -99 l-165 -78 -169 84 -169 83 -37 170 c-21 94 -36 177 -34 186 2 9 55 80 117 158 l114 142 44 -6 c24 -3 107 -5 185 -5z"/>
 <path d="M287 633 c-10 -10 33 -52 47 -47 30 11 47 -34 63 -165 8 -73 13 -134 10 -137 -12 -12 -78 19 -94 43 -13 20 -14 31 -6 53 9 25 7 32 -16 54 -15 14 -30 26 -34 26 -4 0 -7 -24 -7 -54 0 -63 26 -109 80 -140 29 -17 59 -22 180 -27 80 -4 148 -4 152 0 12 11 -30 91 -48 91 -10 0 -14 -5 -10 -15 7 -20 -31 -35 -90 -35 l-44 0 0 39 c0 21 -3 53 -7 71 l-6 33 71 -5 c56 -4 72 -2 72 8 0 22 -58 46 -103 42 l-42 -3 -6 42 c-3 23 -14 51 -24 63 -18 20 -18 20 8 20 32 0 34 10 9 33 -13 12 -37 17 -84 17 -35 0 -68 -3 -71 -7z"/>
 </g>

</svg>